<?xml version="1.0" encoding="UTF-8" standalone="no"?>
<!-- Created with Inkscape (http://www.inkscape.org/) -->

<svg
   width="800"
   height="800"
   viewBox="0 0 211.66666 211.66667"
   version="1.1"
   id="svg1"
   xml:space="preserve"
   xmlns="http://www.w3.org/2000/svg"
   xmlns:svg="http://www.w3.org/2000/svg"><defs
     id="defs1" /><g
     id="layer1"><path
       style="display:inline;fill:#000000;stroke-width:0.398439"
       d="m 19.678541,166.19024 c -0.278409,-0.2145 -0.362633,-0.44443 -0.449603,-1.22741 -0.05886,-0.52989 -0.110265,-1.31662 -0.114235,-1.74826 -0.004,-0.43163 -0.04593,-0.8235 -0.09324,-0.87081 -0.04731,-0.0473 -0.411013,0.0944 -0.808221,0.31489 -0.397209,0.2205 -0.982923,0.44262 -1.301589,0.4936 -0.52582,0.084 -0.628471,0.0477 -1.110222,-0.39364 -0.527453,-0.48321 -0.530332,-0.4918 -0.452327,-1.35206 0.05795,-0.63908 0.201426,-1.06979 0.547981,-1.645 0.54023,-0.89668 0.889642,-1.18028 1.889687,-1.53378 0.686886,-0.24282 0.750808,-0.2431 1.502425,-0.007 0.431758,0.13581 0.850592,0.32593 0.930742,0.42251 0.08015,0.0966 0.170174,1.08812 0.200055,2.20344 0.05487,2.04808 0.290722,4.02654 0.545444,4.57552 0.161806,0.34872 -0.06757,0.89607 -0.375517,0.89607 -0.10692,0 -0.278638,0.0305 -0.381595,0.0678 -0.102958,0.0373 -0.341361,-0.051 -0.529783,-0.19616 z m -2.004819,-4.56704 c 0.610706,-0.31775 1.039427,-0.87011 1.151642,-1.48376 0.0957,-0.52335 0.07664,-0.57865 -0.2256,-0.65451 -0.725321,-0.18204 -1.873868,1.00911 -1.879491,1.94922 -0.0027,0.44832 0.328819,0.51405 0.953449,0.18905 z m 7.52236,3.60608 c -0.04798,-0.1353 -0.185837,-0.36058 -0.306352,-0.50065 -0.120516,-0.14006 -0.253219,-0.54662 -0.294896,-0.90345 l -0.07578,-0.64879 -0.769171,-0.17279 c -1.128385,-0.2535 -1.550073,-0.77113 -1.550073,-1.90274 0,-1.18972 0.598597,-3.11348 1.088757,-3.49905 0.476162,-0.37454 1.073466,-0.32432 1.133248,0.0953 0.02383,0.16725 -0.148977,0.685 -0.384,1.15059 -0.539182,1.06811 -0.646944,2.32793 -0.225487,2.63611 0.447482,0.32721 0.77546,0.2481 0.788565,-0.19021 0.02096,-0.70109 0.140377,-1.19312 0.424923,-1.75088 0.235564,-0.46174 0.341996,-0.54344 0.660124,-0.50672 l 0.379279,0.0438 -0.0028,1.2051 -0.0028,1.20508 0.564906,-0.11684 c 1.369099,-0.28317 1.419275,-0.28515 1.603186,-0.0636 0.144462,0.17406 0.147514,0.32327 0.01487,0.72527 -0.185441,0.5619 -0.44922,0.70798 -1.539575,0.85262 -0.38957,0.0517 -0.715592,0.16487 -0.724493,0.25155 -0.03295,0.32086 0.0337,0.7304 0.179895,1.1049 0.134664,0.34502 0.103183,0.42908 -0.30269,0.80822 -0.529951,0.49505 -0.545654,0.49927 -0.659878,0.17718 z m 40.507143,-1.06292 c -0.264862,-0.20225 -0.281123,-0.37993 -0.281123,-3.07231 v -2.85765 l -1.897563,-0.0876 c -3.27462,-0.15116 -12.909009,-0.19776 -18.793932,-0.0909 -5.591632,0.10153 -5.653677,0.0996 -5.852852,-0.18479 -0.204351,-0.29175 -0.165982,-0.76905 0.07373,-0.9172 0.275548,-0.1703 0.989463,-0.2151 4.26209,-0.26746 1.855397,-0.0296 3.721333,-0.0875 4.146531,-0.1285 1.417852,-0.13668 16.776199,-0.0992 17.341108,0.0424 0.299288,0.075 0.615549,0.10823 0.702803,0.0739 0.10561,-0.0416 0.17142,-0.77125 0.196856,-2.1827 0.021,-1.16615 0.0952,-2.22677 0.164862,-2.35693 0.06967,-0.13016 0.170178,-1.08802 0.223369,-2.12857 0.06266,-1.22579 0.165921,-2.00224 0.293283,-2.20525 0.42852,-0.68308 0.471938,-0.68658 8.416693,-0.67832 l 7.449699,0.008 0.456483,0.32558 c 0.251068,0.17908 0.494171,0.47575 0.540231,0.65926 0.04606,0.18352 0.0116,1.11229 -0.0766,2.06394 -0.0882,0.95165 -0.197454,2.44895 -0.242804,3.32735 l -0.08246,1.59708 0.686499,-0.0824 c 1.479199,-0.17747 13.138083,-0.18445 28.412032,-0.017 4.27127,0.0468 7.76595,0.0411 7.76595,-0.0128 0,-0.0539 -0.15813,-0.24452 -0.3514,-0.42364 -0.37518,-0.3477 -0.45911,-0.87795 -0.18273,-1.15434 0.22291,-0.22291 0.91207,-0.21611 1.05425,0.0104 0.12469,0.19866 0.88745,0.71349 0.94877,0.64039 0.0214,-0.0255 -0.0141,-0.77377 -0.0789,-1.66282 -0.39426,-5.4105 -0.56854,-12.62574 -0.32057,-13.27194 0.0845,-0.22007 -0.37705,-0.23078 -6.70916,-0.15564 -7.28356,0.0864 -8.2036,0.1156 -10.59498,0.33585 -0.85039,0.0783 -2.53737,0.14641 -3.748822,0.1513 -1.211452,0.005 -3.140644,0.0705 -4.287088,0.14582 -1.146447,0.0754 -3.381114,0.16937 -4.965932,0.20902 -1.584817,0.0396 -4.05165,0.13751 -5.481854,0.21749 -1.430199,0.08 -3.897032,0.17456 -5.481849,0.21017 -1.584819,0.0357 -4.273033,0.13309 -5.973815,0.21661 -1.70078,0.0836 -3.693219,0.13855 -4.427649,0.12225 -0.734427,-0.0163 -4.213294,-0.0227 -7.730814,-0.0142 -3.517523,0.009 -7.692164,0.0144 -9.276982,0.0133 -1.584817,-9.9e-4 -3.355877,0.0595 -3.935688,0.13463 -0.579809,0.0752 -3.207197,0.17848 -5.838633,0.22957 l -4.784427,0.0928 -0.198973,-0.37179 c -0.254988,-0.47644 -0.05648,-0.82745 0.505029,-0.89301 0.224126,-0.0262 0.474111,-0.10264 0.555519,-0.16993 0.08141,-0.0673 1.030192,-0.1229 2.108407,-0.12356 4.440785,-0.003 8.889895,-0.11703 9.073531,-0.23311 0.108208,-0.0684 5.137941,-0.13114 11.229977,-0.14008 6.06869,-0.009 11.666502,-0.0578 12.439584,-0.10868 1.256377,-0.0827 4.917279,-0.22121 11.877345,-0.44946 1.275585,-0.0419 2.893138,-0.13538 3.594565,-0.20791 0.701427,-0.0725 2.282731,-0.12771 3.51401,-0.12269 2.268618,0.009 12.228399,-0.27104 13.132119,-0.36959 0.27058,-0.0295 3.14855,-0.0951 6.39549,-0.14584 3.24695,-0.0507 6.59932,-0.13246 7.4497,-0.18165 l 1.54616,-0.0895 0.0282,-6.3984 c 0.0162,-3.67217 -0.0265,-6.48694 -0.1002,-6.60619 -0.10398,-0.16825 -0.25738,-0.0808 -0.80613,0.45973 -0.37273,0.36713 -0.7288,0.66752 -0.79126,0.66752 -0.0624,0 -0.26222,-0.11693 -0.44391,-0.25985 l -0.33036,-0.25986 0.46608,-0.69207 c 0.25634,-0.38065 0.56896,-0.77747 0.69472,-0.88185 0.3555,-0.29503 0.2789,-0.57659 -0.15789,-0.58032 -1.77915,-0.0152 -5.30849,-0.16399 -6.5712,-0.27698 -0.85038,-0.0761 -2.26213,-0.16328 -3.13719,-0.19372 -1.581,-0.055 -1.59186,-0.0531 -1.72187,0.28875 -0.072,0.18926 -0.13083,0.56279 -0.13083,0.83004 0,0.28606 -0.22599,0.93274 -0.5494,1.57216 -0.75755,1.49776 -1.82947,2.5385 -3.38067,3.2823 -1.08322,0.5194 -1.34443,0.58539 -2.67627,0.67601 -0.81174,0.0552 -1.622323,0.0483 -1.801298,-0.0154 -0.178978,-0.0637 -0.507965,-0.11579 -0.731086,-0.11579 -1.704401,0 -4.669442,-1.82734 -5.473743,-3.37345 -0.396366,-0.76193 -0.708615,-1.94999 -0.708615,-2.69616 0,-0.3725 -0.04744,-0.67603 -0.105423,-0.6745 -0.05798,0.002 -0.544565,0.0663 -1.081298,0.14383 -0.536733,0.0775 -2.086412,0.1714 -3.443729,0.20851 -1.357313,0.0371 -3.89102,0.16723 -5.630452,0.28915 -4.395137,0.30807 -6.251391,0.42834 -9.417539,0.61021 -1.507512,0.0866 -3.762134,0.22642 -5.010278,0.31075 -2.569495,0.17361 -10.74387,0.0446 -11.636759,-0.1836 -0.319492,-0.0817 -3.695777,-0.16785 -7.998197,-0.20416 -4.094925,-0.0346 -7.492236,-0.0919 -7.549583,-0.1273 -0.05734,-0.0355 -1.801354,-0.13114 -3.875574,-0.21268 -3.122041,-0.12273 -3.814273,-0.18714 -4.020863,-0.37411 -0.297458,-0.26918 -0.326086,-0.78712 -0.0559,-1.01137 0.22717,-0.18853 5.457088,-0.0934 7.396603,0.13449 0.657121,0.0772 4.420621,0.16342 8.363339,0.19156 4.622553,0.033 7.492175,0.10941 8.079702,0.21515 1.591814,0.28651 11.785005,0.24544 15.74527,-0.0634 1.962521,-0.15306 4.717274,-0.3745 6.254932,-0.50279 3.654468,-0.3049 5.466945,-0.42125 8.503896,-0.54586 1.739436,-0.0714 3.624413,-0.17447 4.188842,-0.2291 0.936749,-0.0907 1.043996,-0.13368 1.229904,-0.49318 0.112017,-0.21662 0.203718,-0.53931 0.203781,-0.71709 2.51e-4,-0.70344 0.45291,-2.43507 0.784415,-3.00073 1.067098,-1.82088 3.026176,-3.16836 4.978442,-3.42426 l 0.632522,-0.0829 0.17724,-3.37346 c 0.09748,-1.8554 0.148491,-3.44839 0.113353,-3.53998 -0.0995,-0.25933 -9.294765,-0.14919 -11.816539,0.14153 -1.08231,0.12478 -2.590914,0.26689 -3.352451,0.31581 l -1.384609,0.089 0.0989,1.38185 c 0.119237,1.66587 -0.142537,2.73403 -0.724226,2.95519 -0.570149,0.21678 -2.101014,0.4496 -5.390476,0.81985 -1.639666,0.18456 -8.32265,-0.21431 -9.440501,-0.56344 -0.435486,-0.13602 -0.529916,-0.2393 -0.612078,-0.66945 -0.111411,-0.58328 -0.09868,-2.58547 0.01944,-3.05608 l 0.0794,-0.31633 -2.507961,0.0562 c -3.494091,0.0784 -6.316913,0.1853 -7.146454,0.27075 -2.014319,0.20749 -14.737934,0.31431 -18.080432,0.15178 -1.96482,-0.0955 -2.596772,-0.073 -3.962074,0.14109 -1.337064,0.20969 -1.663237,0.22251 -1.84399,0.0725 -0.26981,-0.22392 -0.28774,-0.90021 -0.02956,-1.11449 0.104525,-0.0867 1.027488,-0.28608 2.051026,-0.44296 1.703094,-0.26103 2.069936,-0.27179 4.324027,-0.1268 3.374835,0.21708 16.271019,0.0369 21.265837,-0.29713 1.198276,-0.0801 2.526572,-0.16915 2.951765,-0.1978 0.425194,-0.0286 1.267549,-0.0577 1.871897,-0.0646 0.976246,-0.0111 1.091012,-0.0399 1.028883,-0.25845 -0.09952,-0.35009 -0.106124,-6.032585 -0.0089,-7.624064 0.134305,-2.197497 -0.05593,-2.126077 6.103933,-2.291775 7.370541,-0.198271 8.691854,-0.145355 9.112171,0.364926 0.251539,0.305375 0.478621,2.938314 0.469146,5.439523 -0.0051,1.35289 0.05201,2.77606 0.126954,3.1626 l 0.136275,0.7028 1.719198,-0.0501 c 0.945563,-0.0276 1.831201,-0.10955 1.968088,-0.18219 0.136887,-0.0726 0.299885,-0.10057 0.362217,-0.062 0.06233,0.0385 0.709356,-0.0177 1.437837,-0.12504 1.861585,-0.27419 3.84516,-0.33881 5.892716,-0.19196 0.966354,0.0693 2.584138,0.085 3.59508,0.0347 l 1.838081,-0.0913 -0.01287,-1.00138 c -0.0071,-0.55077 0.03626,-2.48781 0.09631,-4.304555 0.06006,-1.816744 0.162352,-5.354111 0.227334,-7.860815 l 0.118145,-4.557649 -0.322919,-0.29168 c -0.177604,-0.160427 -0.443175,-0.513066 -0.59016,-0.783646 -0.244824,-0.450698 -0.319161,-0.491103 -0.886247,-0.481748 -3.188325,0.05261 -9.124209,0.221548 -9.966269,0.283649 -3.782446,0.278946 -15.725412,0.258591 -16.18847,-0.02761 -0.05496,-0.03395 -1.637518,-0.188749 -3.51681,-0.343965 -1.879287,-0.155215 -4.017784,-0.337808 -4.752209,-0.405758 -0.734426,-0.06795 -1.936217,-0.145102 -2.670648,-0.171447 l -1.335323,-0.0479 -0.08744,3.162606 c -0.114432,4.139024 -0.227397,4.539415 -1.493134,5.292361 -0.653825,0.388939 -0.715886,0.397845 -2.847083,0.408443 -1.198276,0.0059 -3.88649,0.06227 -5.97381,0.125138 -3.976952,0.119778 -4.838192,0.04353 -5.227574,-0.462843 -0.09839,-0.127958 -0.15126,-0.39078 -0.117476,-0.584051 0.03379,-0.193271 0.100367,-1.626016 0.147964,-3.183883 l 0.08654,-2.83248 -1.380415,-0.112671 c -0.759224,-0.06196 -3.182934,-0.105076 -5.386021,-0.09579 -2.590103,0.01092 -4.067827,-0.03478 -4.18167,-0.129245 -0.30547,-0.253519 -0.21606,-0.945415 0.140203,-1.084957 0.758476,-0.297083 6.321009,-0.418583 9.326918,-0.203725 0.804352,0.0575 1.312198,0.03912 1.366924,-0.04942 0.0479,-0.0775 0.09263,-1.646807 0.09941,-3.487358 0.01156,-3.136605 0.03017,-3.369181 0.296885,-3.708854 0.526935,-0.671082 1.336299,-0.813197 3.926657,-0.689474 1.268995,0.06061 2.971412,0.172986 3.783146,0.249721 0.811735,0.07674 2.140031,0.177959 2.951769,0.224939 2.089082,0.120902 4.393515,0.464786 4.620338,0.689478 0.162208,0.160682 0.164428,0.573169 0.01403,2.607326 -0.152152,2.057773 -0.149458,2.435727 0.01813,2.546353 0.108252,0.07144 0.734462,0.09691 1.391582,0.05657 0.657121,-0.04033 1.79566,-0.01172 2.530085,0.06359 8.488058,0.870429 10.316281,1.007413 13.774908,1.032088 3.109694,0.0222 8.156971,-0.08622 11.877349,-0.255104 0.618464,-0.02809 3.007637,-0.09731 5.309278,-0.153873 l 4.184797,-0.102825 0.478262,-0.665704 c 0.549697,-0.765141 1.19144,-1.050511 2.0971,-0.932541 0.4743,0.06179 0.69836,0.205798 1.22001,0.784175 l 0.63901,0.708492 2.10192,-0.126501 c 1.15605,-0.06958 3.43021,-0.196083 5.05368,-0.281134 1.62347,-0.08505 4.02705,-0.213507 5.34129,-0.285453 1.31424,-0.07195 4.35035,-0.167158 6.7469,-0.211575 4.76496,-0.08831 5.8659,-0.137876 7.66053,-0.3449 0.65712,-0.07581 1.76832,-0.20283 2.46932,-0.282274 0.70102,-0.07945 1.81697,-0.14445 2.47991,-0.14445 0.83516,0 1.22574,-0.05396 1.27173,-0.1757 0.0365,-0.09663 0.009,-1.219361 -0.0615,-2.494947 -0.0894,-1.620908 -0.21071,-2.576169 -0.40275,-3.172515 -0.15112,-0.469298 -0.27477,-0.969346 -0.27477,-1.111214 0,-0.453937 0.6749,-1.179977 1.23371,-1.327203 1.44242,-0.380027 13.0065,-0.581497 15.3524,-0.267472 2.02313,0.270818 2.44229,0.73841 2.24546,2.504956 -0.056,0.502507 -0.0682,1.66368 -0.027,2.580388 l 0.0749,1.666745 0.71572,-0.101061 c 0.39365,-0.05558 0.96873,-0.09915 1.27796,-0.09682 0.99539,0.0075 8.64723,-0.379872 8.75305,-0.443107 0.0562,-0.03358 1.43055,-0.100033 3.05402,-0.147618 3.97576,-0.116528 5.56732,-0.20838 7.73081,-0.446152 1.00501,-0.110451 2.55469,-0.201076 3.44373,-0.201391 0.88904,-3.1e-4 2.15409,-0.05926 2.81121,-0.130983 1.82968,-0.199721 6.12571,-0.550236 8.78501,-0.716771 1.31424,-0.0823 2.89554,-0.240191 3.51401,-0.350865 2.1111,-0.377779 2.60037,-0.235325 2.60037,0.757117 0,0.523708 -0.0453,0.600189 -0.45682,0.769752 -0.31749,0.130843 -0.52683,0.145223 -0.68635,0.04716 -0.15571,-0.09573 -0.85627,-0.07973 -2.17868,0.04978 -1.07203,0.104992 -2.77144,0.212125 -3.77644,0.238075 -1.00502,0.02594 -1.92216,0.08346 -2.03813,0.127784 -0.11596,0.04433 -0.62198,0.102207 -1.12448,0.128615 -0.50251,0.02641 -1.89405,0.145853 -3.09233,0.265436 -1.19828,0.119584 -2.68895,0.218169 -3.31262,0.219082 -0.62366,7.96e-4 -2.58447,0.122775 -4.35737,0.27081 -1.77288,0.148037 -4.04571,0.27713 -5.05072,0.28688 -1.005,0.0098 -2.90257,0.113698 -4.21681,0.230995 -1.31423,0.1173 -3.0853,0.239744 -3.93568,0.272102 -2.05391,0.07815 -5.34726,0.217953 -6.76868,0.287322 -0.63044,0.03076 -1.3104,0.118352 -1.51102,0.194625 -0.34199,0.130027 -0.36476,0.196825 -0.36476,1.070107 0,0.986773 -0.2483,4.738973 -0.36407,5.501648 -0.12107,0.797622 -0.22198,0.827258 -2.3166,0.680422 -2.3656,-0.16583 -5.87038,-0.144335 -8.0722,0.04951 -0.92769,0.08168 -2.69571,0.210048 -3.92893,0.285278 -2.13652,0.130329 -2.26396,0.123337 -2.70354,-0.148343 l -0.46132,-0.285115 0.0869,-1.225282 c 0.0915,-1.288993 -0.0417,-3.787804 -0.21692,-4.071417 -0.0786,-0.127229 -0.66642,-0.132226 -2.48372,-0.02112 -1.3094,0.08006 -2.4756,0.150163 -2.59156,0.155777 -0.11596,0.0056 -0.85282,0.09619 -1.63747,0.20126 -0.78465,0.105072 -2.27107,0.190446 -3.30317,0.189716 -1.03209,-7.96e-4 -3.80572,0.06497 -6.16362,0.14598 -2.3579,0.08102 -5.36238,0.179573 -6.67662,0.219018 -1.31424,0.03944 -2.95879,0.132278 -3.65457,0.206291 -0.69577,0.07401 -2.15057,0.170364 -3.23288,0.214109 -1.08232,0.04374 -2.26581,0.116858 -2.62998,0.16248 -0.64155,0.08037 -0.66892,0.103346 -0.88003,0.738976 -0.22635,0.681465 -0.75389,1.136506 -1.31758,1.136506 -0.15746,0 -0.3265,0.06507 -0.37565,0.144602 -0.0492,0.07953 -0.11494,1.392012 -0.14619,2.916626 -0.0312,1.524614 -0.095,3.847312 -0.14171,5.161549 -0.18946,5.333246 -0.2797,9.147126 -0.22075,9.329246 0.0522,0.16129 1.17983,0.1804 6.89312,0.11686 3.75689,-0.0418 8.60176,-0.1414 10.76639,-0.22137 2.16463,-0.08 9.81814,-0.17906 17.0078,-0.2202 15.32632,-0.0877 20.68229,-0.23133 25.01973,-0.67089 0.86711,-0.0879 4.57101,-0.16648 8.43362,-0.17898 4.63874,-0.015 8.14949,-0.10054 10.75286,-0.26193 2.12597,-0.1318 5.13045,-0.29685 6.67661,-0.36676 1.54617,-0.0699 3.44373,-0.19897 4.21682,-0.28676 4.65816,-0.529 6.47956,-0.64391 6.74288,-0.42538 0.33455,0.27766 0.25514,0.52403 -0.22257,0.69056 -0.29807,0.10391 -0.41197,0.2188 -0.35754,0.36065 0.11982,0.31226 -0.0749,0.37037 -1.41934,0.42352 -1.81676,0.0718 -5.43474,0.3408 -6.641,0.49372 -0.57981,0.0735 -3.14153,0.23122 -5.69269,0.35046 -2.55117,0.11925 -5.46077,0.28952 -6.46577,0.37838 -1.07975,0.0955 -3.46611,0.13864 -5.83326,0.10554 -5.78176,-0.0809 -6.29217,-0.0742 -8.8553,0.11601 -6.79623,0.50427 -8.03395,0.53334 -27.87715,0.65467 -7.33104,0.0448 -13.37503,0.10984 -13.43108,0.14449 -0.056,0.0346 -1.61656,0.0778 -3.46779,0.096 -1.85123,0.0181 -3.96677,0.0797 -4.7012,0.13691 -0.73442,0.0572 -3.65984,0.12275 -6.50092,0.14575 -2.84107,0.023 -5.17041,0.076 -5.1763,0.1178 -0.006,0.0418 -0.0351,1.24617 -0.065,2.67637 -0.0298,1.4302 -0.0923,2.92808 -0.13876,3.32861 -0.0735,0.63324 -0.0479,0.74784 0.1963,0.8785 0.15443,0.0827 0.49052,0.15071 0.74685,0.15125 0.66184,0.002 2.69278,0.50833 3.32144,0.82905 0.2919,0.14891 0.79629,0.55886 1.12087,0.91098 1.00335,1.08852 1.52556,2.44546 1.95353,5.07617 l 0.11433,0.70279 1.54616,0.14702 c 0.8504,0.0809 1.76755,0.10898 2.03813,0.0625 0.27057,-0.0465 0.71334,-0.0304 0.98392,0.0358 0.52289,0.1279 6.62788,0.38321 6.74689,0.28216 0.0386,-0.0328 -0.062,-0.16695 -0.22374,-0.29806 -0.70046,-0.56796 -0.38194,-1.56468 0.50002,-1.56468 0.34968,0 0.51266,0.13587 1.01159,0.84336 0.60298,0.85501 0.85538,1.0073 1.06087,0.64011 0.0625,-0.11178 0.64316,-0.74429 1.29022,-1.4056 0.94847,-0.96935 1.25646,-1.20236 1.5892,-1.20236 0.63772,0 0.93547,0.22092 0.90919,0.6746 -0.0177,0.30486 -0.25934,0.59993 -1.0448,1.27557 -0.562,0.48341 -0.98288,0.94196 -0.93528,1.01898 0.0496,0.0803 0.39552,0.10784 0.81099,0.0646 1.17464,-0.12238 3.80867,-0.21176 8.52553,-0.28932 2.4352,-0.04 6.45172,-0.10584 8.92558,-0.14622 2.47386,-0.0404 9.33672,-0.0974 15.2508,-0.12668 5.91407,-0.0292 11.95465,-0.12436 13.42351,-0.21129 1.46884,-0.0869 3.14503,-0.1848 3.72484,-0.2175 0.57981,-0.0327 2.22437,-0.0687 3.65456,-0.0798 1.43021,-0.0112 3.32777,-0.10406 4.21682,-0.20637 0.88904,-0.10231 2.69172,-0.2267 4.00597,-0.27642 1.31423,-0.0497 2.95878,-0.14736 3.65456,-0.21697 0.69577,-0.0696 2.54431,-0.16998 4.10788,-0.22302 3.00688,-0.102 3.27154,-0.0592 3.27154,0.53001 0,0.14886 -0.17394,0.42092 -0.38654,0.60457 -0.36041,0.31134 -0.51482,0.33629 -2.28411,0.36896 -1.04366,0.0193 -2.20268,0.0243 -2.57561,0.0113 -0.37293,-0.0131 -1.57472,0.0707 -2.67065,0.18625 -1.09593,0.11554 -2.59349,0.21056 -3.32792,0.21116 -0.73443,8e-4 -1.71483,0.0716 -2.17868,0.15767 -0.46385,0.0861 -2.36141,0.17529 -4.21681,0.19816 -1.8554,0.0229 -3.62645,0.0734 -3.93569,0.1122 -0.30924,0.0388 -1.7324,0.10964 -3.1626,0.15733 -1.43021,0.0477 -3.51753,0.14669 -4.63849,0.22001 -1.12097,0.0733 -9.12237,0.16362 -17.78089,0.20068 -8.6585,0.0371 -16.6599,0.12931 -17.78087,0.205 -1.12097,0.0757 -3.54101,0.18004 -5.37788,0.23188 -1.90199,0.0536 -3.37611,0.15307 -3.42421,0.23089 -0.0464,0.0752 0.10847,0.30526 0.34426,0.51133 0.2358,0.20608 0.68579,0.67919 0.99996,1.05137 0.46339,0.54892 0.55446,0.74797 0.48241,1.0542 -0.0489,0.20763 -0.1393,0.43298 -0.20096,0.50076 -0.24474,0.269 -0.94001,-0.10852 -1.69968,-0.92292 -0.43664,-0.4681 -0.84778,-0.81777 -0.91364,-0.77707 -0.0659,0.0407 -0.1153,2.96485 -0.10985,6.4981 l 0.01,6.42409 0.90374,0.023 c 1.07905,0.0275 11.74543,-0.27966 14.04612,-0.40444 0.88904,-0.0482 2.86096,-0.11775 4.38206,-0.15451 1.5211,-0.0368 3.00752,-0.10312 3.30317,-0.14743 0.29565,-0.0444 3.32063,-0.0936 6.72219,-0.10971 3.40156,-0.016 6.94369,-0.084 7.87138,-0.15104 0.9277,-0.0671 1.97136,-0.12607 2.31925,-0.13116 l 0.63252,-0.009 -0.01,-0.84336 c -0.005,-0.46385 -0.0334,-2.17166 -0.0624,-3.79513 -0.0554,-3.08884 -0.006,-3.42001 0.55933,-3.72239 0.48848,-0.26142 4.23268,-0.57368 7.59486,-0.63339 1.81675,-0.0323 3.96732,-0.0952 4.77905,-0.13984 3.23001,-0.17768 4.01297,-0.0452 4.62485,0.78238 0.2448,0.3311 0.29494,0.54534 0.23697,1.01241 -0.13834,1.11448 -0.24069,6.11724 -0.12649,6.18256 0.0627,0.0359 1.15767,-0.0224 2.43325,-0.12952 3.0074,-0.25252 15.81179,-0.31299 16.2532,-0.0768 0.16379,0.0876 0.3314,0.28788 0.37248,0.44495 0.0624,0.23868 0.008,0.28557 -0.33384,0.28557 -0.41496,0 -0.58437,0.33545 -0.23283,0.46101 0.28623,0.10222 0.0256,0.26073 -0.40724,0.24765 -1.44591,-0.0438 -9.02096,-0.0203 -12.06749,0.0373 -3.26826,0.0618 -5.90638,0.26421 -6.11102,0.46885 -0.0405,0.0405 -0.0736,1.60223 -0.0736,3.47051 0,4.48953 0.0143,4.46448 -2.36039,4.11675 -1.53375,-0.22458 -6.98622,-0.19361 -8.25192,0.0469 -0.34787,0.0661 -1.55571,0.23332 -2.68407,0.3716 -2.81204,0.34461 -3.6424,0.16619 -4.19507,-0.90137 -0.11745,-0.22687 -0.12418,-0.37849 -0.0223,-0.5013 0.0923,-0.11121 0.13472,-1.15634 0.11517,-2.83736 l -0.0309,-2.66131 -8.42451,0.043 c -4.63347,0.0236 -8.46919,0.0705 -8.52381,0.1043 -0.0546,0.0338 -2.11442,0.12707 -4.57732,0.20735 -2.46291,0.0803 -6.28069,0.21175 -8.48398,0.29214 -2.20329,0.0804 -5.391,0.17208 -7.0838,0.20376 -1.69281,0.0317 -3.10015,0.0799 -3.12744,0.1072 -0.0273,0.0273 -0.044,1.87865 -0.0372,4.11416 0.007,2.23552 0.007,4.25433 9.9e-4,4.48625 -0.006,0.23192 0.0832,1.14646 0.19849,2.03228 0.11526,0.88584 0.20958,2.35645 0.20958,3.26804 0,0.91157 0.0563,1.65742 0.12509,1.65742 0.0688,0 0.51736,-0.30045 0.99678,-0.66767 1.5599,-1.1948 1.71459,-1.29217 2.19594,-1.38248 0.65944,-0.12371 0.89899,0.003 0.89899,0.47503 0,0.32448 -0.17535,0.54383 -0.91365,1.14283 -0.5025,0.40769 -0.91363,0.79552 -0.91363,0.86183 0,0.0663 2.19801,0.10747 4.88447,0.0915 2.68646,-0.016 6.46577,0.0194 8.39847,0.0784 9.63034,0.29457 10.70052,0.32983 15.74276,0.51857 2.24194,0.084 7.83975,0.21312 12.43958,0.28711 4.59984,0.074 9.97627,0.22732 11.94763,0.34073 5.77043,0.33196 11.03102,0.50541 15.29291,0.50422 3.28367,-7.9e-4 4.04982,0.0362 4.39047,0.21229 0.45847,0.23708 0.65806,0.75599 0.44039,1.14496 -0.1341,0.23961 -0.44713,0.25149 -5.44061,0.20652 -2.91407,-0.0263 -5.49611,-0.10444 -5.73786,-0.17378 -0.24175,-0.0693 -1.48363,-0.13155 -2.75972,-0.13825 -1.27609,-0.007 -3.14245,-0.0686 -4.14745,-0.13771 -5.68017,-0.39015 -7.20645,-0.43775 -19.60817,-0.61156 -2.51251,-0.0353 -5.01097,-0.12773 -5.55213,-0.20557 -0.54116,-0.0778 -2.62847,-0.1523 -4.63849,-0.16545 -2.01001,-0.0131 -4.00245,-0.0457 -4.42765,-0.0724 -0.42519,-0.0267 -2.19626,-0.0829 -3.93569,-0.12487 -1.73943,-0.0421 -4.36439,-0.11351 -5.83325,-0.15886 -4.23871,-0.13086 -12.07097,-0.13902 -12.26613,-0.0127 -0.13324,0.0861 -0.0714,0.24433 0.24598,0.62941 0.32512,0.39443 0.42393,0.65426 0.42393,1.1148 0,0.55387 -0.0286,0.60048 -0.36761,0.60048 -0.27347,0 -0.61254,-0.25839 -1.32414,-1.00913 l -0.95655,-1.00915 -1.12221,1.14971 c -1.16023,1.18864 -1.61027,1.39939 -1.99592,0.9347 -0.24369,-0.29363 -0.028,-0.73769 0.77601,-1.59718 0.34818,-0.37223 0.63304,-0.71249 0.63304,-0.75614 0,-0.0437 -2.0715,-0.0635 -4.60334,-0.0441 -2.53185,0.0195 -6.59579,-0.0258 -9.03101,-0.10046 -4.81362,-0.14764 -19.040693,-0.15659 -22.020707,-0.0138 -1.551847,0.0743 -1.858493,0.12567 -1.901122,0.3183 -0.02797,0.12633 -0.01004,1.11521 0.03985,2.19752 0.124079,2.69332 0.01219,4.50562 -0.302103,4.89377 -0.242239,0.29917 -0.300153,0.30255 -5.284193,0.30963 -2.771595,0.004 -6.430816,0.0592 -8.131595,0.12279 -2.678109,0.10016 -3.129982,0.0869 -3.373444,-0.099 z m 6.827669,-1.64387 c 1.099495,-0.10476 4.76023,-0.0826 8.212282,0.0498 l 0.56224,0.0215 0.0089,-4.49794 c 0.0048,-2.47385 0.05491,-5.06719 0.111237,-5.76297 0.05632,-0.69576 0.127225,-1.62898 0.157562,-2.07379 0.03032,-0.44481 0.09401,-0.93116 0.141498,-1.08078 0.05743,-0.18094 0.0016,-0.31719 -0.166392,-0.40689 -0.294267,-0.15701 -13.912708,-0.20915 -14.008218,-0.0536 -0.105741,0.17218 -0.120329,3.02383 -0.01825,3.56611 0.08218,0.43656 0.05469,0.52658 -0.183972,0.60232 -0.207199,0.0658 -0.296167,0.24401 -0.340147,0.6815 -0.10724,1.06677 -0.131612,8.94699 -0.02821,9.11433 0.10773,0.17431 2.885369,0.0945 5.55151,-0.15955 z m -0.147614,-2.3141 c -0.121954,-0.14694 -0.169667,-0.95951 -0.165062,-2.8112 l 0.0065,-2.60452 h -1.030769 c -0.940431,0 -1.050635,-0.0303 -1.257752,-0.34645 -0.648088,-0.98911 -0.204642,-1.15415 3.146443,-1.17103 3.134651,-0.0158 3.641314,0.0829 3.8213,0.7444 0.194539,0.71499 -0.208574,0.91364 -1.85399,0.91364 -0.972987,0 -1.393248,0.0514 -1.437431,0.17571 -0.159224,0.44803 0.02682,3.45935 0.247864,4.01177 l 0.232362,0.58073 -0.385015,0.35682 c -0.428899,0.39749 -1.059807,0.469 -1.32445,0.15013 z m 94.30523,-16.94813 c 0.66114,-0.0809 1.54995,-0.20604 1.97515,-0.27815 1.6506,-0.27995 6.03079,-0.42866 8.27507,-0.28095 0.74025,0.0487 1.19307,0.0246 1.2207,-0.065 0.0242,-0.0783 0.0776,-2.48281 0.11883,-5.34322 0.0412,-2.86039 0.10619,-5.91137 0.1444,-6.77996 0.0653,-1.4839 0.0521,-1.58851 -0.21778,-1.73297 -0.19608,-0.10493 -1.29855,-0.1298 -3.47349,-0.0783 -1.75244,0.0415 -4.48946,0.10463 -6.08228,0.14037 -2.00694,0.045 -3.24653,0.14033 -4.03772,0.31035 l -1.14168,0.24533 0.076,3.45458 c 0.0553,2.51478 0.12501,3.51224 0.25636,3.6665 0.32104,0.37706 0.36545,0.6844 0.11056,0.76518 -0.21668,0.0686 -0.23435,0.34605 -0.19068,2.99383 0.0332,2.00953 0.0988,2.95038 0.21084,3.02167 0.23199,0.14763 1.35961,0.13159 2.75578,-0.0392 z m -0.71556,-3.68324 c -0.11755,-0.21803 -0.18192,-1.40769 -0.20725,-3.83027 -0.0413,-3.94684 -0.0452,-3.92951 1.01008,-4.37047 0.59624,-0.24912 0.97794,-0.19028 1.51718,0.23387 0.81239,0.63904 1.0587,2.2669 0.48374,3.1972 -0.21958,0.35529 -0.25864,0.51604 -0.13537,0.55713 0.0953,0.0318 0.34488,0.20136 0.55462,0.37685 0.20974,0.1755 0.71444,0.52338 1.12153,0.77307 0.95829,0.58776 1.10756,0.86156 0.77721,1.42545 -0.21932,0.37438 -0.31218,0.42117 -0.70944,0.35753 -0.25139,-0.0403 -1.03038,-0.4567 -1.73108,-0.92539 -0.70068,-0.46869 -1.32883,-0.85216 -1.39587,-0.85216 -0.0671,0 -0.0858,0.66306 -0.0419,1.47347 0.0892,1.64179 -0.002,1.89998 -0.67348,1.89998 -0.27009,0 -0.45476,-0.10245 -0.57003,-0.31626 z m 1.71069,-5.31345 c 0.30908,-0.57751 0.0841,-1.3983 -0.38342,-1.3983 -0.1311,0 -0.18273,0.25691 -0.18273,0.90923 0,0.7578 0.0358,0.89551 0.21474,0.82683 0.11812,-0.0453 0.27625,-0.19732 0.35141,-0.33776 z m 4.58609,5.23211 c -0.33373,-0.36877 -0.28974,-0.63601 0.18906,-1.14856 0.23191,-0.24828 0.42167,-0.50923 0.42167,-0.5799 0,-0.0706 0.15561,-0.37499 0.3458,-0.67625 0.67918,-1.07591 0.69231,-1.04315 -1.18031,-2.94588 -0.93256,-0.94757 -1.69558,-1.76722 -1.69558,-1.82146 0,-0.0542 0.0985,-0.23919 0.21882,-0.411 0.15893,-0.22691 0.36088,-0.31242 0.73794,-0.31247 0.47615,-7e-5 0.63177,0.11911 1.87937,1.43924 0.74814,0.79163 1.41229,1.3881 1.47589,1.3255 0.0636,-0.0626 0.3054,-0.5047 0.53732,-0.98243 0.62143,-1.28006 1.94017,-2.05696 2.44961,-1.44313 0.21464,0.25863 -0.10372,1.04978 -0.69205,1.71984 -0.23212,0.26438 -0.70315,1.06641 -1.04675,1.78229 -0.34359,0.71588 -0.75484,1.41937 -0.91391,1.56332 -0.15907,0.14395 -0.51042,0.6573 -0.7808,1.14077 -0.48657,0.87007 -1.19065,1.60716 -1.53518,1.60716 -0.0981,0 -0.28296,-0.11567 -0.4109,-0.25704 z m -69.17745,-12.60562 c 0.90921,-0.41998 1.43059,-0.76527 1.85363,-1.22758 0.70511,-0.77058 1.26717,-1.83351 1.39621,-2.64048 l 0.0942,-0.58952 -0.47728,0.12108 c -0.26252,0.0666 -1.48517,0.10458 -2.71702,0.0845 -1.68186,-0.0276 -2.26776,0.008 -2.35225,0.14056 -0.13561,0.21364 -0.15661,4.51823 -0.0227,4.65215 0.2107,0.2107 1.02905,0.0119 2.22514,-0.54062 z m -3.76636,-1.87692 0.0288,-2.36846 -1.71551,-0.17028 c -0.94353,-0.0936 -2.082177,-0.23256 -2.53032,-0.30866 -1.2891,-0.21892 -1.387479,-0.14371 -1.276969,0.97611 0.157786,1.59885 0.747265,2.38398 2.513459,3.3477 0.851161,0.46443 2.034037,0.84472 2.740927,0.88119 0.178429,0.009 0.215264,-0.35324 0.239626,-2.3576 z m 0.09273,-5.3254 c -0.02439,-0.75375 -0.07068,-2.21228 -0.102909,-3.24117 -0.03223,-1.02889 -0.08385,-1.89596 -0.114726,-1.92684 -0.13615,-0.13614 -1.670857,0.34266 -2.47907,0.77343 -1.630036,0.86879 -2.516116,2.24753 -2.779137,4.3243 l -0.09346,0.73794 0.826334,0.005 c 0.454479,0.003 0.984459,0.0954 1.177729,0.20586 0.193271,0.11048 0.636035,0.2106 0.983924,0.22248 0.347886,0.0118 0.822278,0.0699 1.054201,0.12891 0.231923,0.0591 0.680374,0.11479 0.996551,0.12394 l 0.574876,0.0166 z m 6.84998,1.13183 c 0.18812,-0.18813 0.0173,-1.23209 -0.45985,-2.81077 -0.36702,-1.21425 -1.3486,-2.28222 -2.46585,-2.6829 -1.03926,-0.37269 -2.35818,-0.54066 -2.49588,-0.31785 -0.0553,0.0895 -0.0547,1.45238 0.001,3.02873 l 0.10187,2.86608 0.50876,0.0426 c 1.40147,0.11715 4.65165,0.0321 4.80959,-0.12583 z m -26.579652,-10.83888 1.616441,-0.2376 -0.04245,-1.73195 c -0.02335,-0.95257 -0.11583,-1.90135 -0.205515,-2.1084 -0.105076,-0.24259 -0.172651,-1.52314 -0.190031,-3.60111 -0.02976,-3.558173 -0.13058,-4.913067 -0.380477,-5.113274 -0.292386,-0.234247 -2.521638,-0.332011 -3.966935,-0.173975 -0.769584,0.08416 -2.966758,0.175113 -4.88261,0.20214 -1.915853,0.02701 -3.528784,0.09454 -3.58429,0.150025 -0.0555,0.05549 -0.100916,2.858764 -0.100916,6.229504 v 6.12862 l 0.632521,0.15957 c 0.347889,0.0878 1.233419,0.1781 1.967844,0.20075 0.734426,0.0226 1.967845,0.092 2.740927,0.15401 1.807617,0.14512 4.349193,0.0425 6.395495,-0.25831 z m -9.894486,-3.13238 c -0.310993,-0.24463 -0.366217,-0.39831 -0.365069,-1.01597 0.0024,-1.29871 0.409288,-4.41993 0.638657,-4.89932 0.306643,-0.64088 1.214776,-1.261778 1.970009,-1.346905 0.559204,-0.06303 0.660459,-0.02418 1.111034,0.426405 0.420967,0.42097 0.495757,0.59154 0.495757,1.13068 0,0.73428 -0.362025,1.66376 -0.894495,2.29656 l -0.371464,0.44147 0.808679,0.69806 c 1.013664,0.875 1.336256,0.99122 1.56129,0.56247 0.09188,-0.17505 0.318272,-0.52496 0.5031,-0.77757 l 0.336048,-0.45929 -0.549898,-0.82348 c -0.583282,-0.87347 -0.655582,-1.19927 -0.354231,-1.59625 0.293737,-0.38695 0.854634,-0.30444 1.267719,0.18649 0.200144,0.23785 0.363899,0.49086 0.363899,0.56224 0,0.28875 0.313388,0.0905 1.035589,-0.65515 0.899081,-0.92824 1.330175,-0.9913 1.528096,-0.22353 0.106946,0.41486 0.06835,0.52553 -0.343092,0.98393 -0.254976,0.28406 -0.58233,0.78185 -0.727456,1.10619 l -0.26387,0.58971 0.471077,0.60506 c 0.259094,0.33278 0.534307,0.64916 0.611584,0.70307 0.191776,0.13378 -0.464783,0.81563 -0.785374,0.81563 -0.138454,0 -0.467851,-0.18976 -0.732,-0.42169 -0.264145,-0.23192 -0.519154,-0.42168 -0.56668,-0.42168 -0.04753,0 -0.39125,0.31626 -0.763827,0.7028 -0.65,0.67436 -0.708315,0.70277 -1.441192,0.70206 -0.491302,-3.9e-4 -0.894936,-0.0882 -1.131418,-0.24598 -1.216481,-0.81148 -1.486156,-1.01149 -1.727414,-1.28121 -0.147271,-0.16464 -0.375971,-0.29935 -0.508224,-0.29935 -0.202667,0 -0.224102,0.0828 -0.136386,0.5271 0.05724,0.28991 0.151558,0.64083 0.209594,0.77984 0.07165,0.17162 0.02092,0.31899 -0.158089,0.45919 -0.594071,0.46528 -0.71373,0.48593 -1.091953,0.18842 z m 2.291174,-4.82385 c 0.261974,-0.50851 0.30051,-0.69459 0.170731,-0.82437 -0.301136,-0.30114 -0.922557,0.17299 -0.977385,0.74572 -0.02566,0.26786 -0.110153,0.56356 -0.187801,0.65712 -0.07765,0.0936 -0.09807,0.23985 -0.0454,0.32508 0.159964,0.25883 0.668798,-0.18331 1.039856,-0.90355 z M 50.311872,92.116976 c 1.430199,-0.07107 3.433613,-0.130831 4.452025,-0.132811 1.88299,-0.0036 2.363909,-0.111073 2.900706,-0.647869 0.270766,-0.270767 0.359471,-1.631686 0.453937,-6.96434 0.0404,-2.280592 0.0873,-4.363166 0.104223,-4.627945 0.02737,-0.428118 -0.01593,-0.493032 -0.390916,-0.586335 -0.681218,-0.169495 -7.214871,-0.690199 -9.861596,-0.785928 -2.612306,-0.09448 -2.653935,-0.0833 -2.210425,0.593583 0.209196,0.319272 0.208941,0.374026 -0.0032,0.697857 -0.126635,0.19327 -0.276226,0.351338 -0.332425,0.351267 -0.160169,-2.07e-4 -0.04096,4.663119 0.130246,5.095444 0.108904,0.274991 0.109901,0.498088 0.0036,0.773079 -0.223098,0.576385 -0.325923,5.86114 -0.119233,6.12807 0.210595,0.271974 0.687582,0.36026 1.570067,0.290609 0.386542,-0.03052 1.872968,-0.113614 3.303168,-0.184681 z m 2.616518,-2.550728 c -0.329772,-0.391908 -0.367555,-0.55316 -0.367555,-1.568669 v -1.13186 l -1.001787,0.09872 c -1.589929,0.156666 -1.672976,0.212699 -1.572506,1.061006 0.07245,0.611715 0.03999,0.760528 -0.228046,1.04585 -0.346693,0.369041 -0.595932,0.381848 -0.982904,0.05051 -0.229166,-0.196215 -0.270469,-0.551391 -0.358527,-3.083186 -0.05474,-1.57378 -0.07775,-3.114431 -0.05114,-3.423663 0.04312,-0.501045 0.09232,-0.567262 0.452045,-0.608368 0.222018,-0.02538 0.458272,0.0085 0.525015,0.07522 0.184341,0.184342 0.386892,1.419331 0.420268,2.562491 l 0.02984,1.022334 1.208166,-0.0994 c 0.664492,-0.05467 1.298982,-0.14949 1.409983,-0.210718 0.159391,-0.08792 0.194083,-0.422476 0.165025,-1.591484 -0.03466,-1.393785 -0.019,-1.489682 0.268093,-1.643332 0.415086,-0.222145 0.940348,-0.06573 1.067458,0.317883 0.05758,0.173763 0.0877,1.375554 0.06694,2.670646 -0.02319,1.446328 0.03052,2.736648 0.139186,3.344761 0.192004,1.074378 0.123644,1.265385 -0.521906,1.458361 -0.226205,0.06762 -0.390621,-0.01785 -0.66766,-0.3471 z m 92.33198,-2.118816 c 3.97494,-0.203698 4.56001,-0.203324 6.03086,0.004 0.61119,0.0861 1.13473,0.133085 1.1634,0.10441 0.29623,-0.296227 0.52721,-11.8938 0.24255,-12.17846 -0.32077,-0.320767 -2.00265,-0.435171 -6.38261,-0.434154 -3.98119,7.96e-4 -8.68639,0.190154 -9.25183,0.372081 -0.14218,0.04574 -0.1217,0.150447 0.0874,0.446865 0.30791,0.436506 0.3361,0.794655 0.59468,7.555695 0.0857,2.241939 0.18419,4.163385 0.21877,4.269888 0.0687,0.211479 0.65318,0.200247 7.29679,-0.14021 z m -4.97585,-2.285469 c -0.11215,-0.135142 -0.15752,-1.265377 -0.14967,-3.729178 l 0.0113,-3.535266 0.42816,-0.487629 c 0.36801,-0.41915 0.5159,-0.487629 1.05308,-0.487629 1.8377,0 2.5262,1.530183 1.5811,3.514009 l -0.43526,0.91364 1.27873,1.199045 c 1.21979,1.143778 1.27873,1.226378 1.27873,1.792141 0,0.503256 -0.0435,0.5931 -0.28672,0.5931 -0.42899,0 -1.27509,-0.477851 -1.75141,-0.989148 -0.5186,-0.556698 -1.45931,-1.259815 -1.68552,-1.259815 -0.11975,0 -0.13925,0.185884 -0.0685,0.652351 0.17501,1.153146 -0.19193,2.018295 -0.85602,2.018295 -0.13038,0 -0.30947,-0.08726 -0.39798,-0.193916 z m 1.89164,-4.97765 c 0.37686,-0.901961 0.13629,-2.022848 -0.39075,-1.820605 -0.1574,0.0604 -0.23084,0.38492 -0.28351,1.252739 -0.0391,0.644172 -0.0419,1.221732 -0.006,1.283466 0.10524,0.182155 0.46221,-0.193238 0.68046,-0.7156 z m 5.78595,4.558668 c -0.82917,-0.233381 -1.36642,-0.713185 -1.36642,-1.220321 0,-0.208237 0.28016,-0.927674 0.62259,-1.598752 0.70741,-1.386363 0.9924,-2.430113 0.74494,-2.72828 -0.11401,-0.13737 -0.47655,-0.182262 -1.29015,-0.159758 -1.47509,0.04079 -1.44929,0.04613 -1.55495,-0.321464 -0.05,-0.173943 -0.12073,-0.423664 -0.15718,-0.554933 -0.22972,-0.827227 3.06009,-0.901328 4.08885,-0.0921 0.62884,0.494645 0.44142,1.951512 -0.48825,3.795228 -0.30308,0.601069 -0.50568,1.117496 -0.45023,1.147619 0.0554,0.03013 0.51196,0.133269 1.01446,0.229214 0.5025,0.09594 1.09347,0.241987 1.31326,0.324552 0.35166,0.132094 0.3893,0.201713 0.31363,0.580071 -0.0473,0.236476 -0.14223,0.48619 -0.21095,0.554916 -0.2145,0.214493 -1.87337,0.242793 -2.5796,0.04402 z M 16.211711,150.64721 c -0.317092,-0.1001 -0.806513,-0.33103 -1.087603,-0.51321 -0.410833,-0.26625 -0.511414,-0.41925 -0.512813,-0.78007 -0.0012,-0.3058 0.09782,-0.51858 0.310657,-0.66766 0.474167,-0.33212 0.823059,-0.26533 1.243264,0.23801 0.327953,0.39284 0.471142,0.45682 1.022271,0.45682 1.004919,0 1.036656,-0.088 0.74867,-2.07597 -0.136975,-0.94554 -0.301449,-1.77172 -0.365497,-1.83596 -0.06405,-0.0642 -0.371366,0.0132 -0.682928,0.17218 -0.311564,0.15895 -0.836882,0.34975 -1.167375,0.42401 -0.515779,0.11589 -0.661897,0.0933 -1.031549,-0.15916 -0.883878,-0.60375 -1.084305,-0.90653 -0.979983,-1.48046 0.212505,-1.16909 1.2733,-2.88382 2.019554,-3.26453 0.936626,-0.47783 1.463972,-0.38858 2.267017,0.38366 0.581172,0.55887 0.706193,0.77072 0.767325,1.30018 0.04017,0.34788 0.130842,1.01203 0.2015,1.47589 0.289503,1.90051 0.431047,3.0078 0.5158,4.03507 0.109057,1.32185 -0.03669,1.60568 -1.095515,2.13331 -0.805045,0.40117 -1.290357,0.43643 -2.172795,0.15789 z m 0.491385,-6.24212 c 0.361111,-0.33733 0.435773,-0.51341 0.432075,-1.01906 -0.0047,-0.64578 -0.244522,-1.10322 -0.578327,-1.10322 -0.48095,0 -1.567542,1.98053 -1.312763,2.39277 0.183657,0.29716 1.016667,0.14273 1.459015,-0.27049 z m 6.297413,3.07602 c -0.323549,-0.25529 -0.38643,-0.40237 -0.3514,-0.82191 l 0.04266,-0.51099 h 0.913057 c 0.903667,0 0.915835,-0.005 1.183514,-0.50402 0.14875,-0.27723 0.231477,-0.60561 0.18384,-0.72976 -0.135199,-0.35231 -0.736052,-0.68175 -1.396555,-0.7657 -0.760552,-0.0967 -0.954135,-0.25104 -0.954135,-0.76092 0,-0.32035 0.09704,-0.45319 0.45682,-0.62534 0.792749,-0.37933 1.323162,-1.34736 1.244797,-2.2718 -0.0267,-0.31479 -0.515304,-0.18534 -0.928537,0.24597 -0.463905,0.48422 -0.771868,0.5302 -1.102696,0.16464 -0.35046,-0.38725 -0.282384,-0.7652 0.224195,-1.24468 0.557889,-0.52805 0.875843,-0.69683 1.496977,-0.79466 0.591195,-0.0931 1.349931,0.42504 1.466203,1.00128 0.04234,0.20981 0.119396,0.55327 0.171245,0.76325 0.06809,0.27572 -0.0255,0.63772 -0.336872,1.30311 l -0.431142,0.92133 0.787497,0.76275 0.787499,0.76276 -0.07996,0.77466 c -0.05654,0.54781 -0.208523,0.96153 -0.519014,1.41281 -0.496921,0.72225 -0.994339,1.02819 -1.864131,1.14653 -0.485318,0.0661 -0.675022,0.0223 -0.99387,-0.22931 z M 18.85764,130.67862 c -0.280073,-0.19618 -0.312396,-0.3393 -0.312396,-1.38327 0,-1.07341 -0.136738,-1.77638 -0.544141,-2.79743 l -0.157022,-0.39353 -0.52792,0.54957 c -0.769925,0.80151 -1.286535,0.96742 -2.074874,0.66634 -0.366172,-0.13984 -0.760828,-0.42587 -0.946216,-0.68577 -0.839107,-1.17639 0.122899,-3.30782 1.689313,-3.74285 0.665307,-0.18478 1.394434,-0.18777 1.506658,-0.006 0.179219,0.28999 0.341389,0.12565 0.262964,-0.26647 -0.06011,-0.30057 -0.0041,-0.4844 0.214355,-0.70281 0.325987,-0.32598 0.921757,-0.39318 1.08885,-0.12282 0.05878,0.0951 0.116177,0.99645 0.127543,2.00299 0.01551,1.37322 0.08231,1.98793 0.267616,2.46256 0.325916,0.83478 0.626507,2.41889 0.633458,3.33831 0.0042,0.55563 -0.06388,0.8074 -0.275542,1.01907 -0.338317,0.33831 -0.539777,0.35149 -0.952646,0.0623 z m -2.253432,-4.94678 c 0.619628,-0.66434 0.736179,-1.0007 0.454571,-1.31188 -0.421091,-0.4653 -1.076269,-0.32359 -1.40022,0.30286 -0.213124,0.41214 -0.275554,1.13822 -0.111935,1.30185 0.210891,0.21089 0.718979,0.0702 1.057584,-0.29283 z m 6.412722,1.71831 c -0.630112,-0.20145 -1.238799,-0.75276 -1.238799,-1.12202 0,-0.27936 0.56309,-1.48601 1.04898,-2.24788 0.845938,-1.32642 0.918865,-1.46666 0.918865,-1.76709 0,-0.2214 -0.06106,-0.27768 -0.230648,-0.21261 -0.346778,0.13308 -0.893835,-0.28958 -0.893835,-0.69058 0,-0.23937 0.126581,-0.41001 0.4147,-0.559 1.119386,-0.57885 2.121635,0.0426 2.108634,1.30737 -0.0076,0.74012 -0.196291,1.14602 -1.152871,2.48011 -0.367213,0.51214 -0.667662,1.01874 -0.667662,1.12578 0,0.27195 0.448498,0.38549 1.605459,0.40643 l 0.994905,0.018 0.04259,0.43728 c 0.03701,0.38018 -0.02263,0.46821 -0.456902,0.67429 -0.709607,0.33673 -1.719219,0.39744 -2.493416,0.14992 z m -3.832209,-15.01393 c -0.298404,-0.21821 -0.760018,-1.8497 -0.771935,-2.72827 -0.0087,-0.63787 -0.23769,-0.78736 -0.578035,-0.37727 -0.500091,0.60257 -1.629594,0.80141 -2.371899,0.41755 -0.218782,-0.11314 -0.531901,-0.43301 -0.69582,-0.71084 -0.562817,-0.9539 -0.331863,-2.05173 0.666007,-3.16584 l 0.68519,-0.76502 1.037807,-7.9e-4 c 0.905984,-8e-4 1.070348,-0.0411 1.293989,-0.31723 0.362353,-0.44733 0.736588,-0.39813 1.000837,0.13157 0.181341,0.3635 0.193535,0.53834 0.06476,0.92854 -0.257558,0.7804 0.191724,4.14508 0.725426,5.43274 0.31195,0.75263 0.313795,0.78317 0.064,1.05919 -0.296784,0.32794 -0.749895,0.3667 -1.120325,0.0958 z m -2.216013,-4.06359 c 0.44159,-0.29157 1.014294,-1.26188 1.014294,-1.71848 0,-0.21184 -0.305513,-0.35478 -0.758279,-0.35478 -0.607287,0 -1.4174,1.14692 -1.263812,1.78925 0.173449,0.7254 0.289689,0.75816 1.007797,0.28401 z m 8.094917,2.03172 c -0.788964,-0.11542 -1.225179,-1.25792 -1.204404,-3.15446 0.0083,-0.75471 -0.01824,-1.37221 -0.05892,-1.37221 -0.04068,0 -0.338359,0.18018 -0.661521,0.40041 -0.870133,0.59296 -1.251099,0.64796 -1.637689,0.23646 -0.421651,-0.44883 -0.305622,-0.69111 0.53496,-1.11707 0.922239,-0.46734 1.991044,-1.849 1.991044,-2.57387 0,-0.73736 0.846822,-1.14029 1.31327,-0.62487 0.194546,0.21497 0.210719,0.38082 0.09939,1.01907 -0.07313,0.41927 -0.158467,1.61621 -0.189621,2.65987 -0.04649,1.55755 -0.01036,2.04869 0.201709,2.74093 0.142092,0.46385 0.257157,0.96987 0.255694,1.12448 -0.004,0.40781 -0.299689,0.71162 -0.643909,0.66126 z m -6.30754,-17.425228 c -0.07731,-0.0568 -0.158264,-0.188003 -0.179901,-0.291565 -0.03847,-0.184138 -0.306692,-2.978887 -0.325924,-3.395988 -0.02755,-0.597388 -0.144023,-0.60391 -0.729031,-0.04082 -0.981481,0.944706 -1.361868,1.052088 -2.3402,0.660635 -0.344716,-0.137928 -0.664382,-0.402662 -0.83463,-0.691215 -0.249812,-0.423397 -0.262136,-0.571879 -0.130186,-1.568594 0.08016,-0.605511 0.258914,-1.322313 0.397232,-1.59289 0.602704,-1.179024 1.873006,-1.827283 3.580657,-1.827283 1.274793,0 1.387117,0.128966 1.253393,1.439124 -0.04941,0.484068 -0.0083,1.607518 0.09139,2.496561 0.09967,0.889044 0.185697,1.785116 0.19117,1.991273 0.0054,0.206156 0.05739,0.422265 0.11537,0.480246 0.05798,0.05798 0.10542,0.2521 0.10542,0.431377 0,0.179278 0.07506,0.606603 0.166803,0.949615 0.133552,0.499335 0.130121,0.667855 -0.01722,0.845379 -0.189055,0.227796 -1.086002,0.303958 -1.344354,0.114149 z M 16.674752,88.46698 c 0.8614,-0.786765 1.614748,-2.86175 1.109399,-3.05567 -0.5878,-0.225559 -1.951093,0.690267 -2.114476,1.42045 -0.169492,0.757487 -0.247021,1.615959 -0.165195,1.829196 0.128666,0.335294 0.693255,0.241713 1.170272,-0.193976 z m 5.103231,0.832968 c -0.637285,-0.337107 -0.871926,-0.623923 -1.222474,-1.494304 -0.366257,-0.909381 -0.295836,-1.949015 0.204022,-3.012006 0.199942,-0.425197 0.351035,-0.899586 0.335761,-1.054204 -0.03144,-0.318297 0.730264,-0.990192 1.278559,-1.127805 0.341646,-0.08575 0.870998,0.17941 1.816655,0.909983 0.607468,0.4693 0.96107,1.366812 0.96107,2.439376 0,1.617143 -0.705814,2.948315 -1.809308,3.412372 -0.618454,0.260081 -0.964541,0.243841 -1.564285,-0.07341 z M 23.18266,88.0271 c 0.274022,-0.146653 0.844434,-1.489264 0.844434,-1.987591 0,-0.798344 -0.94862,-1.819052 -1.495535,-1.609183 -0.321923,0.123537 -0.893989,1.565936 -0.893989,2.254099 0,1.049854 0.797426,1.742811 1.54509,1.342675 z"
       id="path1" /><path
       style="display:inline;fill:#000000;stroke-width:0.398439"
       d="m 136.22254,29.915301 c -0.55322,-0.06792 -1.61315,-0.623472 -2.18376,-1.144603 -0.45238,-0.413165 -0.92326,-1.330247 -0.92797,-1.807281 -0.006,-0.56558 1.15509,-0.642172 1.23529,-0.08152 0.0744,0.51987 1.59946,1.589861 2.26609,1.589861 0.43433,0 0.74643,-0.643721 0.67138,-1.38475 -0.0738,-0.728903 -0.42731,-1.771426 -0.74569,-2.199289 -0.20814,-0.279712 -0.21127,-0.279565 -0.75808,0.03514 -1.21094,0.696929 -2.32974,0.194949 -2.44074,-1.095112 -0.0675,-0.784307 0.24613,-1.772737 0.72323,-2.279476 0.43189,-0.45871 1.2191,-0.716962 1.58635,-0.52042 0.13849,0.07412 0.40003,0.134772 0.58118,0.134772 0.51572,0 0.95416,0.383118 0.95416,0.83378 0,0.21789 0.22433,0.888443 0.49852,1.490117 1.08356,2.37769 1.27015,3.438748 0.83128,4.726789 -0.24517,0.719532 -1.21794,1.81604 -1.58101,1.782116 -0.13241,-0.01235 -0.45202,-0.04843 -0.71023,-0.08013 z m -0.76043,-6.355216 c 0.38536,-0.321484 0.39494,-0.496091 0.0512,-0.933123 -0.22099,-0.280943 -0.29212,-0.304435 -0.42759,-0.141211 -0.21212,0.255599 -0.4446,1.072538 -0.34915,1.226972 0.11722,0.189669 0.38202,0.133959 0.72557,-0.152638 z m -5.46372,2.05851 c 0.28691,0 -0.25395,-0.80787 -0.32794,-2.206605 -0.055,-1.040797 -0.12332,-1.92991 -0.15169,-1.97581 -0.0283,-0.0459 -0.11427,-0.584804 -0.19089,-1.197566 -0.11426,-0.913815 -0.10231,-1.170968 0.0665,-1.430371 0.22683,-0.348554 0.72693,-0.41452 1.06561,-0.140562 0.29353,0.237434 0.51993,1.746253 0.60409,4.025825 0.05,1.353165 0.12964,1.974088 0.28347,2.208879 0.27725,0.423114 0.26999,0.614401 -0.032,0.843626 -0.39021,0.296212 -1.76081,-0.127416 -1.31719,-0.127416 z m 10.13735,0.0028 c 0,0.631782 -0.83512,-0.983243 -0.75198,-1.952238 0.13843,-1.613385 1.15607,-3.071073 2.1414,-3.067392 0.58097,0.002 1.733,0.608779 2.229,1.173697 0.54335,0.618835 0.65475,1.000125 0.56503,1.933846 -0.0552,0.57462 -0.16355,0.802352 -0.589,1.238052 -0.28674,0.293649 -0.76155,0.605874 -1.05514,0.693834 -0.7051,0.211252 -2.53931,-0.512414 -2.53931,-0.0198 z m 2.35439,-1.503209 c 0.67157,-0.304838 0.77738,-0.690734 0.33471,-1.220693 -0.27684,-0.331437 -1.18282,-0.640187 -1.51006,-0.514615 -0.24053,0.09231 -0.61679,0.92755 -0.61679,1.369175 0,0.684724 0.75186,0.838331 1.79214,0.366133 z m -20.06004,1.270498 c 0,-0.445893 -0.17865,-1.650215 0.0653,-2.586931 0.11596,-0.445211 0.21083,-0.915512 0.21083,-1.045116 0,-0.129602 0.16915,-0.666744 0.37587,-1.193643 0.42533,-1.084116 1.21895,-1.930444 1.8102,-1.930444 0.79037,0 1.60411,0.695467 1.89135,1.616442 0.0964,0.309233 0.23051,0.707535 0.29794,0.885116 0.0675,0.17758 0.12258,0.438657 0.12258,0.58017 0,0.141514 0.0941,0.335434 0.20922,0.430935 0.11508,0.09551 0.19431,0.340442 0.17606,0.544312 -0.0183,0.203872 0.0217,0.840403 0.0887,1.414512 0.10846,0.929458 0.0939,1.064226 -0.13265,1.229901 -0.61519,0.449833 -1.11692,0.11991 -1.32024,-0.868138 -0.0571,-0.277616 -0.16885,-0.41768 -0.327,-0.409966 -0.13211,0.0064 -0.70775,0.02227 -1.27918,0.03514 -1.00457,0.02263 -1.04265,0.03622 -1.15029,0.40997 -0.0612,0.212595 -0.12228,0.488629 -0.13568,0.613408 -0.0627,0.583801 -0.90301,0.825297 -0.90301,0.274332 z m 3.3417,-3.350695 c 0.0449,-0.453339 -0.47839,-1.582565 -0.78004,-1.683115 -0.32973,-0.10991 -1.22217,1.824044 -0.96193,2.084514 0.0322,0.03219 0.42751,0.05372 0.87851,0.04781 0.8124,-0.01068 0.82038,-0.01483 0.86346,-0.449209 z m 20.75378,3.335191 c -0.14304,-0.158057 -0.27741,-0.400917 -0.29859,-0.539681 -0.0607,-0.397212 -1.02799,-2.591127 -1.25134,-2.837927 -0.27635,-0.305363 -0.25251,-0.743112 0.0556,-1.021991 0.40111,-0.363006 0.81306,-0.283644 1.16375,0.224193 0.1735,0.251251 0.33155,0.478796 0.35124,0.505659 0.0484,0.06597 0.89858,-0.441068 0.89872,-0.535964 7e-5,-0.04132 0.27537,-0.09284 0.6118,-0.114495 0.71296,-0.04589 0.97713,0.177273 0.90927,0.768153 -0.036,0.312918 -0.13131,0.409125 -0.4617,0.465788 -0.60778,0.104235 -1.11304,0.895494 -0.98742,1.546364 0.0522,0.270579 0.12777,0.665782 0.16792,0.878226 0.0548,0.290242 -0.01,0.455057 -0.25921,0.662985 -0.42403,0.353244 -0.57942,0.353017 -0.90008,-0.0012 z m 29.5078,-0.51901 c 0,-0.104162 -0.26566,-0.32101 -0.39957,-0.582279 -0.23379,-0.456136 -0.23278,-0.485728 0.0255,-0.744008 0.19352,-0.193513 0.55345,-0.292828 1.28285,-0.353981 0.6326,-0.05303 0.99481,-0.14221 0.96317,-0.23713 -0.0279,-0.08367 -0.43655,-0.299467 -0.90814,-0.479545 -0.96991,-0.370361 -2.14304,-1.320231 -2.14304,-1.735201 0,-0.637717 0.9925,-1.815297 1.92572,-2.28483 0.96523,-0.485637 2.29108,-0.09194 2.29108,0.680306 0,0.496566 -0.29371,0.65169 -1.04019,0.549375 -0.59324,-0.08131 -0.70096,-0.05085 -1.06978,0.302499 -0.22557,0.216101 -0.38187,0.43861 -0.34736,0.494458 0.0345,0.05585 0.62194,0.429768 1.30538,0.830928 1.62011,0.950954 1.96696,1.501445 1.50677,2.391369 -0.28692,0.554818 -0.98592,0.938471 -1.90098,1.043351 -0.42519,0.04874 -0.89958,0.120855 -1.0542,0.160272 -0.15462,0.0394 -0.43721,0.06857 -0.43721,-0.03558 z M 151.7741,24.40664 c -0.47783,-0.558078 -0.60844,-0.955445 -0.76676,-2.333022 -0.075,-0.652551 -0.0539,-0.719963 0.28026,-0.898841 0.31454,-0.168337 0.40768,-0.163022 0.71911,0.04104 0.27043,0.177187 0.35778,0.354423 0.35778,0.725936 0,0.283724 0.15039,0.729736 0.35572,1.055021 0.51157,0.810372 0.59068,1.33371 0.23073,1.526347 -0.43444,0.232513 -0.9191,0.184544 -1.17684,-0.116479 z m 3.52178,-0.467939 c -0.037,-0.148017 -0.29077,-0.444386 -0.38381,-0.77278 -0.18095,-0.638677 -0.63024,-1.159926 -0.99981,-1.159926 -0.58415,0 -0.7406,-0.721297 -0.28273,-1.303396 0.36046,-0.458237 0.36022,-0.461221 -0.15093,-1.937579 -0.23762,-0.686343 -0.41157,-1.385794 -0.38654,-1.55433 0.065,-0.437832 0.44044,-0.635422 0.89356,-0.470309 0.2887,0.105204 0.45796,0.35981 0.76352,1.148575 0.21592,0.557377 0.47087,1.428315 0.56656,1.935424 0.1739,0.92166 0.57844,1.478813 1.07371,1.478813 0.23325,0 0.24276,0.233808 0.0339,0.83304 -0.11698,0.335596 -0.11698,0.494334 0,0.611328 0.0869,0.08691 0.15803,0.333501 0.15803,0.547981 0,0.289665 -0.10666,0.445111 -0.4147,0.604407 -0.50267,0.259941 -0.78444,0.383867 -0.87071,0.03877 z m 9.68518,-0.966361 c -0.31574,-0.318902 -0.71887,-0.935609 -0.89586,-1.370466 -0.39098,-0.96058 -0.24475,-1.352882 0.50428,-1.352882 0.39152,0 0.49869,0.08368 0.77945,0.608603 0.39297,0.734697 0.75118,1.1484 0.99436,1.1484 0.22446,0 1.08003,-1.172537 1.13938,-1.561501 0.0762,-0.499084 0.31982,-0.821756 0.6908,-0.914867 0.45511,-0.114224 0.62854,0.07901 0.96106,1.070768 0.35661,1.063604 0.47344,1.265042 0.73368,1.265042 0.3306,0 0.82095,-0.588792 1.44118,-1.73051 0.50126,-0.92272 0.58349,-1.006599 0.94748,-0.966416 0.56038,0.06186 0.6835,0.229368 1.10411,1.50216 0.20438,0.61847 0.49341,1.334454 0.64229,1.591085 l 0.27069,0.466604 -0.39144,0.391434 c -0.5299,0.529903 -0.88553,0.378581 -1.44658,-0.615552 -0.24191,-0.428652 -0.48124,-0.778015 -0.53185,-0.776365 -0.0506,0.0016 -0.27442,0.260742 -0.49737,0.575759 -0.51368,0.725773 -1.1359,1.106768 -1.80861,1.107436 -0.4342,3.99e-4 -0.6274,-0.102661 -1.09466,-0.584138 l -0.5674,-0.584665 -0.4515,0.42837 c -0.53555,0.508087 -1.23465,0.881521 -1.65032,0.881521 -0.16451,0 -0.55744,-0.260922 -0.87317,-0.57982 z m -6.97752,-0.03554 c -0.44498,-0.459112 -0.52965,-0.671926 -0.92948,-2.336416 -0.10214,-0.425198 -0.34278,-1.149894 -0.53476,-1.610441 -0.47617,-1.142284 -0.20891,-1.786452 0.6516,-1.570478 0.47834,0.120054 1.00839,1.139248 1.2472,2.398158 0.10844,0.571637 0.24446,0.923319 0.35709,0.923319 0.10007,0 0.4836,-0.316261 0.85228,-0.702802 0.45319,-0.475135 0.78353,-0.702799 1.01976,-0.702799 0.38673,0 1.01703,0.379278 0.9122,0.548902 -0.0959,0.155164 0.57793,1.388303 1.13391,2.075119 0.54774,0.676633 0.56533,0.764019 0.21724,1.07904 -0.56382,0.510245 -1.38937,0.108301 -2.10624,-1.025481 l -0.51861,-0.820214 -0.49636,0.517715 c -0.42835,0.446783 -0.4836,0.580095 -0.40325,0.972987 0.0731,0.357392 0.0383,0.484605 -0.16185,0.591726 -0.44464,0.237967 -0.76747,0.149936 -1.24073,-0.338335 z m -7.86044,-5.048895 c -0.28012,-0.289015 -0.44926,-0.606515 -0.44926,-0.843363 0,-0.353865 0.0413,-0.379847 0.60441,-0.379847 0.33242,0 0.68031,0.0759 0.77308,0.168671 0.34308,0.343072 0.11037,1.518051 -0.30066,1.518051 -0.0981,0 -0.38049,-0.208579 -0.62757,-0.463512 z M 33.801875,27.209842 c -1.71191,-0.311316 -2.02713,-0.929338 -1.54167,-3.022599 0.11843,-0.510679 0.17796,-0.988996 0.13226,-1.062922 -0.0457,-0.07392 -0.0161,-0.134414 0.0658,-0.134414 0.0819,0 0.14885,-0.113854 0.14885,-0.253009 0,-0.139154 0.0558,-0.313097 0.12406,-0.386541 0.0683,-0.07344 0.22431,-0.537401 0.34681,-1.03102 0.32886,-1.325139 0.76793,-1.713258 1.28802,-1.138562 0.27593,0.304898 0.25967,0.438091 -0.29147,2.387453 -0.12021,0.425194 -0.24213,0.879668 -0.27092,1.009938 -0.0289,0.130273 -0.11268,0.351654 -0.18642,0.49196 -0.0738,0.14031 -0.17783,0.519333 -0.23131,0.842279 -0.0878,0.530537 -0.0617,0.610456 0.27112,0.828526 0.31095,0.203749 0.57252,0.226998 1.67887,0.149226 1.04928,-0.07376 1.34382,-0.05199 1.47754,0.109125 0.13374,0.16116 0.0884,0.288928 -0.22749,0.641518 -0.56224,0.627465 -1.45705,0.810361 -2.78404,0.569042 z m 6.95775,-0.279194 c -1.0151,-0.123663 -1.48302,-0.366762 -1.82651,-0.948933 -0.41402,-0.70171 -0.36747,-1.565286 0.1384,-2.567403 0.56011,-1.109572 1.30407,-1.572996 2.27801,-1.418995 0.85807,0.135684 1.09703,0.348642 1.09589,0.97666 -0.002,0.815333 -0.81501,1.845213 -1.45758,1.845213 -0.47986,0 -0.79046,0.137637 -0.79046,0.350276 0,0.292023 0.69743,0.667448 1.09776,0.59092 0.42943,-0.08209 1.01065,0.109878 1.01065,0.333812 0,0.203547 -0.55184,0.98033 -0.67723,0.953292 -0.0528,-0.01136 -0.44374,-0.06305 -0.86893,-0.114842 z m 3.12211,-0.304268 c -0.65176,-0.187962 -1.05199,-0.866089 -0.94336,-1.598359 0.11994,-0.808644 0.65229,-1.895787 1.19318,-2.436672 0.83068,-0.830676 0.94474,-0.87007 2.03996,-0.704579 1.23216,0.186187 1.3946,0.269006 1.42996,0.729059 0.057,0.741167 0.47442,2.091942 0.88864,2.875452 l 0.42389,0.801782 -0.45431,0.189031 c -0.58131,0.241872 -1.05287,-0.0046 -1.41111,-0.737653 -0.1359,-0.27807 -0.30686,-0.505579 -0.37992,-0.505579 -0.0731,0 -0.33356,0.249785 -0.5789,0.555081 -0.29347,0.365177 -0.66497,0.629668 -1.08587,0.773082 -0.35189,0.119898 -0.64433,0.212292 -0.64989,0.20532 -0.006,-0.007 -0.21808,-0.07266 -0.47227,-0.145965 z m 1.36736,-1.544056 c 0.22101,-0.163404 0.50971,-0.536299 0.64154,-0.828649 0.23453,-0.520098 0.23287,-0.538382 -0.0772,-0.848492 -0.23135,-0.231349 -0.37479,-0.280448 -0.53117,-0.181811 -0.2823,0.178067 -1.17255,1.863936 -1.07103,2.028201 0.13558,0.219371 0.61886,0.140565 1.0379,-0.169249 z m 4.96931,1.2789 c -0.41262,-0.166113 -0.90379,-1.773694 -0.93313,-3.054044 -0.0212,-0.924848 -0.0122,-0.950922 0.34382,-0.99226 0.26592,-0.03088 0.43053,0.05668 0.60385,0.32117 l 0.23824,0.363627 0.51754,-0.426593 c 0.54716,-0.451012 0.86197,-0.518763 1.30608,-0.281086 0.51273,0.274409 0.24298,1.346921 -0.30933,1.229893 -0.29859,-0.06328 -0.8244,1.126541 -0.8244,1.865489 0,0.452391 -0.0785,0.722257 -0.25704,0.883857 -0.28974,0.262204 -0.26561,0.25904 -0.68563,0.08995 z m 4.21651,-0.595264 c -0.59381,-0.649402 -0.77412,-1.206038 -0.67298,-2.077451 0.0847,-0.729119 0.13793,-0.83329 0.50401,-0.984932 0.61415,-0.254387 0.83033,-0.0024 0.83297,0.971191 0.002,0.938147 0.1343,1.207273 0.52959,1.081812 0.35258,-0.111902 1.37895,-1.420199 1.5907,-2.027642 0.0858,-0.246279 0.28019,-0.514189 0.43186,-0.595359 0.47543,-0.254447 0.84728,0.161288 1.50448,1.682044 0.33829,0.78278 0.67036,1.423239 0.73795,1.423239 0.21039,0 0.13482,0.311348 -0.1231,0.507133 -0.57601,0.437251 -1.27537,0.0086 -1.71413,-1.050703 -0.10032,-0.242195 -0.22675,-0.440355 -0.28095,-0.440355 -0.0542,0 -0.46174,0.411142 -0.90566,0.913644 -0.78052,0.883535 -0.82917,0.91364 -1.47634,0.91364 -0.51462,0 -0.73603,-0.07306 -0.9584,-0.316261 z m 20.73317,0.700705 c -0.71217,-0.409826 -0.56513,-0.420245 -1.93597,0.137179 -1.00155,0.407251 -2.85699,-0.449738 -3.52679,-1.628953 -0.71029,-1.250496 0.0549,-3.800343 1.56422,-5.212084 0.60546,-0.566332 0.75547,-0.638318 1.33019,-0.638318 0.80264,0 1.10526,0.155132 1.32163,0.677501 0.0927,0.223914 0.35932,0.5481 0.59238,0.720405 0.23305,0.172305 0.60861,0.604794 0.83456,0.961089 0.47201,0.744288 0.54064,1.630908 0.21045,2.718815 l -0.19733,0.650163 0.62053,0.609006 c 0.67527,0.662723 0.7349,0.837717 0.39966,1.172956 -0.29695,0.296944 -0.4405,0.277102 -1.21353,-0.167759 z m -1.86618,-1.161712 c 0.0492,-0.07961 -0.10518,-0.366448 -0.34309,-0.637413 -0.23792,-0.270967 -0.43257,-0.541065 -0.43257,-0.600221 0,-0.417281 0.89435,-0.591004 1.404,-0.272723 0.34673,0.21654 0.51402,0.05831 0.62781,-0.593861 0.11259,-0.645327 -0.3021,-1.325139 -0.98152,-1.609019 -0.27746,-0.115929 -0.66744,-0.338971 -0.86662,-0.495645 -0.19918,-0.156675 -0.44769,-0.28486 -0.55226,-0.28486 -0.22167,0 -1.07683,1.633954 -1.31173,2.506334 -0.21327,0.791985 -0.12097,1.021366 0.65384,1.625017 0.48525,0.378062 0.78605,0.50714 1.18181,0.50714 0.29198,0 0.57113,-0.06513 0.62033,-0.144749 z m 4.41104,0.882689 c -0.56646,-0.600693 -0.80961,-1.184179 -0.91268,-2.190109 -0.0932,-0.910452 -0.0884,-0.929187 0.28839,-1.100851 0.34501,-0.1572 0.40836,-0.141374 0.63457,0.158511 0.1382,0.183231 0.28828,0.645519 0.3335,1.027307 0.0452,0.381791 0.1554,0.782346 0.24484,0.89012 0.22264,0.268264 0.60444,0.245948 0.85573,-0.05002 0.33126,-0.390167 0.9057,-1.462832 1.09206,-2.039205 0.19638,-0.60734 0.50811,-0.82384 0.94729,-0.657902 0.41139,0.155435 0.58736,0.528843 0.50489,1.071318 -0.0877,0.576891 0.51573,1.924861 0.96689,2.159868 0.47307,0.246414 0.47191,0.240259 0.10349,0.547072 -0.58752,0.489279 -1.15605,0.332055 -1.90947,-0.528051 -0.41159,-0.469878 -0.45714,-0.489291 -0.54908,-0.234047 -0.0551,0.153081 -0.35667,0.515524 -0.67005,0.805428 -0.72757,0.67309 -1.38317,0.720828 -1.93037,0.140561 z m 9.32328,-0.172309 c -0.25282,-0.156128 -0.53157,-0.441631 -0.61942,-0.634457 l -0.15974,-0.35059 -0.57534,0.468229 c -0.31643,0.257524 -0.78431,0.509125 -1.03974,0.559113 -0.40466,0.07919 -0.53823,0.02204 -1.03823,-0.444378 -0.48845,-0.455615 -0.57382,-0.619784 -0.57382,-1.103337 0,-1.161337 1.20777,-2.714781 2.11068,-2.714781 0.18924,0 0.52202,0.126723 0.73954,0.281608 0.21751,0.154881 0.49658,0.242804 0.62016,0.195386 0.12358,-0.04742 0.39062,0.02251 0.59343,0.155383 0.34796,0.227995 0.3639,0.287904 0.28287,1.063119 -0.0505,0.482755 -0.029,0.856607 0.0519,0.906626 0.0758,0.04681 0.13772,0.207886 0.13772,0.357941 0,0.187896 0.0985,0.274215 0.31626,0.277294 0.34799,0.0049 0.80822,0.298945 0.80822,0.516341 0,0.214232 -0.45377,0.572608 -0.84336,0.666069 -0.22826,0.05476 -0.5125,-0.01518 -0.81109,-0.199566 z m -1.72717,-1.563453 c 0,-0.427185 0.33338,-0.301864 0.11652,-0.659284 -0.32745,-0.539669 -0.49423,-0.5359 -0.75795,0.01713 -0.3991,0.836929 0.64143,1.519606 0.64143,0.64216 z m 8.241478,0.992515 c -0.35368,-0.326006 -0.64304,-0.672553 -0.64304,-0.770106 0,-0.09755 -0.11263,-0.31644 -0.25026,-0.486418 l -0.25026,-0.309053 -0.61387,0.769313 c -0.63494,0.795714 -1.30613,1.223251 -1.92036,1.223251 -0.390628,0 -1.182068,-0.755866 -1.182068,-1.128944 0,-0.122612 -0.0928,-0.34571 -0.20636,-0.495773 -0.13596,-0.17974 -0.20791,-0.618907 -0.21085,-1.286965 -0.004,-0.883773 0.0329,-1.0341 0.28608,-1.169613 0.41059,-0.219739 0.96924,0.161726 0.9899,0.675947 0.0537,1.336746 0.272928,2.070025 0.618758,2.070025 0.25441,0 0.97635,-0.818018 1.78916,-2.02728 0.42534,-0.632792 0.88906,-0.752858 1.26336,-0.327106 0.28466,0.323795 0.81124,1.377426 0.81124,1.623191 0,0.106507 0.28416,0.472728 0.63147,0.813823 0.69186,0.679489 0.72542,0.759249 0.43972,1.044952 -0.46052,0.460516 -0.87933,0.401376 -1.55262,-0.219244 z m 4.36615,0.312265 c 0,0.176198 -0.4718,-0.501907 -0.87909,-1.373483 l -0.61728,-1.320931 -0.53014,0.02076 c -0.69812,0.02734 -1.1554,-0.22717 -1.1554,-0.643096 0,-0.421608 0.26546,-0.637112 0.91455,-0.742443 0.49421,-0.08021 0.51372,-0.10406 0.4255,-0.520301 -0.0509,-0.239936 -0.1275,-0.753702 -0.17033,-1.141706 -0.0721,-0.653272 -0.0508,-0.719971 0.28864,-0.901611 0.73501,-0.393362 1.21228,0.16065 1.21228,1.407186 0,0.808555 0.24553,1.076215 1.10575,1.205429 0.70751,0.106275 0.79627,0.157191 0.83367,0.478241 0.0376,0.323381 -0.03,0.378868 -0.67658,0.554938 -0.39512,0.107597 -0.74829,0.243987 -0.78482,0.303088 -0.0366,0.0591 0.0857,0.410272 0.27182,0.780386 0.52876,1.051969 0.56576,1.267776 0.2789,1.626426 -0.14735,0.184238 -0.51747,0.113196 -0.51747,0.267106 z m 2.811057,-0.56817 c 0,0.909719 -0.865767,-1.491966 -0.812677,-2.869268 0.0161,-0.418301 0.0944,-0.563831 0.371267,-0.689964 0.28988,-0.132079 0.39976,-0.115564 0.63251,0.09508 0.22841,0.206706 0.28169,0.4328 0.28169,1.19528 0,1.004786 0.27097,1.483367 0.78287,1.382781 0.51898,-0.101972 0.80997,-0.747686 0.77826,-1.727024 -0.0278,-0.856404 -0.006,-0.93106 0.31866,-1.078836 0.19166,-0.08732 0.51125,-0.117906 0.71022,-0.06797 0.29681,0.0745 0.36177,0.173711 0.36177,0.552559 0,0.54908 0.60164,1.55346 1.26481,2.111485 0.41173,0.346455 0.4527,0.440087 0.33706,0.770317 -0.18708,0.534199 -0.57029,0.527424 -1.48968,-0.02633 l -0.80145,-0.482717 -0.21241,0.324174 c -0.27954,0.42663 -1.01023,0.800698 -1.65185,0.845642 -0.40191,0.02817 -0.87105,-0.736164 -0.87105,-0.335209 z m 6.00845,-0.680227 c 0,0.770479 -1.03772,-1.781817 -1.03772,-2.434603 0,-0.320485 0.0768,-0.43298 0.34028,-0.499136 0.65722,-0.16495 0.84179,-0.02542 1.1356,0.858512 0.34718,1.044431 0.44079,1.189378 0.76813,1.189378 0.26641,0 1.12943,-1.148467 1.12943,-1.502993 0,-0.104364 0.15626,-0.260949 0.34724,-0.347969 0.44549,-0.202976 0.72131,0.01044 1.07258,0.829912 0.1413,0.329656 0.28426,0.599371 0.31766,0.599371 0.0335,0 0.52075,-0.474389 1.08296,-1.054201 1.37533,-1.418386 1.60803,-1.424708 2.32353,-0.0631 0.28645,0.545103 0.76429,1.199507 1.06187,1.454225 0.29759,0.254717 0.54028,0.520309 0.53932,0.590203 -8e-4,0.06989 -0.22671,0.272841 -0.50167,0.450997 l -0.49995,0.323923 -0.58918,-0.34528 c -0.34062,-0.199619 -0.72574,-0.588278 -0.91291,-0.921301 -0.17806,-0.316815 -0.34459,-0.576026 -0.37008,-0.576026 -0.0255,0 -0.43419,0.379512 -0.90822,0.843362 -1.00638,0.984733 -1.54248,1.104432 -2.20335,0.491961 -0.20854,-0.193271 -0.40731,-0.3514 -0.44172,-0.3514 -0.0345,0 -0.32119,0.221381 -0.63729,0.491961 -0.79811,0.683155 -2.01651,-0.981201 -2.01651,-0.02782 z"
       id="path2" /></g></svg>
